<svg width="24" height="24" xmlns="http://www.w3.org/2000/svg" xmlns:svg="http://www.w3.org/2000/svg">
 <g>
  <title>Layer 1</title>
  <path fill="none" d="m0,0l24,0l0,24l-24,0l0,-24z" id="svg_1"/>
  <path d="m1,21.056314l4,0l0,-12l-4,0l0,12zm22,-11c0,-1.1 -0.9,-2 -2,-2l-6.31,0l0.95,-4.57l0.03,-0.32c0,-0.41 -0.17,-0.79 -0.44,-1.06l-1.06,-1.05l-6.58,6.59c-0.37,0.36 -0.59,0.86 -0.59,1.41l0,10c0,1.1 0.9,2 2,2l9,0c0.83,0 1.54,-0.5 1.84,-1.22l3.02,-7.05c0.09,-0.23 0.14,-0.47 0.14,-0.73l0,-2z" id="svg_2" fill="#888888"/>
  <polygon id="svg_3" fill="black"/>
  <path fill="#888888" stroke-width="null" stroke-dasharray="null" stroke-linejoin="null" stroke-linecap="null" d="m7.873454,7.59188l6.31755,-6.57824c0,0 1.45371,1.56634 1.45371,1.56634c0,0 -0.8447,5.46241 -0.89057,5.41654c-0.04587,-0.04587 6.8598,0.21481 6.81393,0.16894c-0.04587,-0.04587 1.11583,0.66532 1.06996,0.61945c-0.04587,-0.04587 0.32744,0.94689 0.28157,0.90101c-0.04588,-0.04587 0.1585,0.77795 0.11262,0.73208c-0.04587,-0.04587 -0.01044,1.79159 -0.05631,1.74572c-0.04587,-0.04587 -0.51726,1.79159 -0.56313,1.74572c-0.04588,-0.04587 -2.3193,5.39565 -2.36517,5.34978c-0.04587,-0.04587 -0.68621,1.56634 -0.74252,1.56634c-0.05631,0 -11.03745,0.16894 -11.08332,0.12307c-0.04587,-0.04587 -1.19303,-1.36197 -1.2389,-1.40784c-0.04587,-0.04587 0.1585,-11.38577 0.11263,-11.43164" id="svg_5"/>
 </g>
</svg>