<svg width="24" height="24" xmlns="http://www.w3.org/2000/svg" xmlns:svg="http://www.w3.org/2000/svg">
 <g>
  <title>Layer 1</title>
  <path id="svg_1" d="m0,0l24,0l0,24l-24,0l0,-24z" fill="none"/>
  <circle fill="#500000" id="svg_2" r="2" cy="4.075085" cx="12"/>
  <path fill="#500000" id="svg_3" d="m19,13.075085l0,-2c-1.54,0.02 -3.09,-0.75 -4.07,-1.83l-1.29,-1.43c-0.17,-0.19 -0.38,-0.34 -0.61,-0.45c-0.01,0 -0.01,-0.01 -0.02,-0.01l-0.01,0c-0.35,-0.2 -0.75,-0.3 -1.19,-0.26c-1.05,0.09 -1.81,1.02 -1.81,2.07l0,5.91c0,1.1 0.9,2 2,2l5,0l0,5l2,0l0,-5.5c0,-1.1 -0.9,-2 -2,-2l-3,0l0,-3.45c1.29,1.07 3.25,1.94 5,1.95zm-6.17,5c-0.41,1.16 -1.52,2 -2.83,2c-1.66,0 -3,-1.34 -3,-3c0,-1.31 0.84,-2.41 2,-2.83l0,-2.07c-2.28,0.46 -4,2.48 -4,4.9c0,2.76 2.24,5 5,5c2.42,0 4.44,-1.72 4.9,-4l-2.07,0z"/>
 </g>
</svg>